<svg width="49" height="49" viewBox="0 0 49 49" fill="none" xmlns="http://www.w3.org/2000/svg">
<path fill-rule="evenodd" clip-rule="evenodd" d="M33.6875 14.4203C33.6875 20.9434 29.7471 26.5416 24.5 26.5416C19.2488 26.5416 15.3125 20.9434 15.3125 14.4182C15.3125 7.89715 18.7017 4.08331 24.5 4.08331C30.2983 4.08331 33.6875 7.89511 33.6875 14.4203ZM8.37492 41.1232C9.16096 42.0583 12.546 44.9166 24.5 44.9166C36.454 44.9166 39.837 42.0583 40.6251 41.1253C40.6982 41.0356 40.7522 40.9319 40.7838 40.8206C40.8154 40.7093 40.8239 40.5928 40.8088 40.4781C40.6292 38.6773 39.0081 30.625 24.5 30.625C9.99192 30.625 8.37084 38.6773 8.18913 40.4781C8.17434 40.5929 8.1832 40.7096 8.21515 40.8209C8.2471 40.9322 8.30147 41.0337 8.37492 41.1232Z" fill="#333333"/>
</svg>
