<svg width="27" height="19" viewBox="0 0 27 19" fill="none" xmlns="http://www.w3.org/2000/svg">
<path d="M11.2957 12.3625C10.4066 11.4202 12.2498 5.21209 1.42762 0.975757C-0.352184 1.28932 -2.35285 10.0204 8.16289 12.6913C11.3064 14.2167 10.8112 16.7597 10.8112 18.1731H12.8333C12.8333 18.1731 12.006 13.6896 15.7007 12.0465C18.2147 10.9291 25.1576 10.5707 27 0.499803C23.4873 -1.47195 11.0122 2.37162 11.2957 12.3625ZM8.7454 10.6635C8.53114 10.8075 8.23698 10.7555 8.08869 10.5475C7.05951 9.10046 4.21351 5.76166 2.95525 4.54339C2.77068 4.36503 2.77068 4.07466 2.95525 3.89624C3.13898 3.71706 3.43809 3.71706 3.62188 3.89624C4.95839 5.19612 7.77149 8.49652 8.8649 10.026C9.01319 10.234 8.95966 10.5195 8.7454 10.6635ZM21.9357 3.23312C18.4948 5.34407 15.6825 8.85652 14.4144 10.7643C14.2735 10.9763 13.981 11.037 13.7627 10.9002C13.5443 10.7626 13.4817 10.4795 13.6234 10.2667C14.9492 8.28212 17.7969 4.69851 21.4307 2.45957C21.6507 2.3236 21.9415 2.3876 22.0816 2.60118C22.2209 2.81476 22.1558 3.09715 21.9357 3.23312Z" fill="#386225"/>
</svg>
